<?xml version="1.0" encoding="UTF-8"?>
<svg version="1.1" xmlns="http://www.w3.org/2000/svg" width="100" height="100">
<path d="M0 0 C0.96905273 0.00974854 1.93810547 0.01949707 2.93652344 0.02954102 C14.36949523 0.31239297 22.6677934 2.6563351 30.99609375 10.82421875 C36.11703668 16.93101165 38.91813676 23.63321529 40.5625 31.375 C41.90295494 37.63319759 44.9471648 42.25950452 48.54296875 47.4296875 C50.36174863 50.75619703 50.52708152 52.70767014 50.1875 56.4375 C49.54941406 56.6128125 48.91132812 56.788125 48.25390625 56.96875 C45.23990997 58.13485152 43.4348148 59.08337366 41.1875 61.4375 C40.54811617 64.90266641 40.33296581 67.96971678 40.43774414 71.47265625 C40.54673219 76.71404747 39.60001296 79.4572005 36.1875 83.4375 C32.28005847 86.57002035 29.30715363 86.7744592 24.375 86.625 C22.63283203 86.58439453 22.63283203 86.58439453 20.85546875 86.54296875 C19.97503906 86.50816406 19.09460938 86.47335938 18.1875 86.4375 C18.1875 89.0775 18.1875 91.7175 18.1875 94.4375 C3.6675 94.4375 -10.8525 94.4375 -25.8125 94.4375 C-26.4725 88.4975 -27.1325 82.5575 -27.8125 76.4375 C-29.88735644 69.91652261 -32.69712837 64.65699001 -36.4453125 58.95703125 C-41.54096959 49.56646319 -41.02860823 37.12973633 -39.16015625 26.84765625 C-36.25212687 17.15006471 -30.80887193 10.26908147 -22.4140625 4.7265625 C-14.98877011 1.04736357 -8.25467771 -0.09259595 0 0 Z M3.1875 25.4375 C1.43172331 30.3726561 0.19938118 35.33416671 -0.9375 40.4375 C-1.11925781 41.21867187 -1.30101562 41.99984375 -1.48828125 42.8046875 C-2.45003355 47.10003237 -3.02563364 51.00432034 -2.8125 55.4375 C-1.8225 55.1075 -0.8325 54.7775 0.1875 54.4375 C1.07586391 52.234246 1.07586391 52.234246 1.57421875 49.51953125 C1.79013672 48.51212891 2.00605469 47.50472656 2.22851562 46.46679688 C2.44185547 45.40525391 2.65519531 44.34371094 2.875 43.25 C3.09994141 42.20779297 3.32488281 41.16558594 3.55664062 40.09179688 C4.60096515 35.09871942 5.30678984 30.55753299 5.1875 25.4375 C4.5275 25.4375 3.8675 25.4375 3.1875 25.4375 Z M-15.35546875 32.79296875 C-18.75549813 36.39466857 -18.75549813 36.39466857 -20 41 C-18.35594897 44.37463105 -16.41099807 46.71224593 -13.8125 49.4375 C-13.1525 49.4375 -12.4925 49.4375 -11.8125 49.4375 C-12.27960795 46.82169547 -12.72479041 45.5382036 -14.5 43.5 C-14.933125 42.819375 -15.36625 42.13875 -15.8125 41.4375 C-14.99074769 38.29990027 -14.10994125 36.73494125 -11.8125 34.4375 C-11.8125 33.4475 -11.8125 32.4575 -11.8125 31.4375 C-13.90437172 31.21750516 -13.90437172 31.21750516 -15.35546875 32.79296875 Z M14.1875 31.4375 C14.65460795 34.05330453 15.09979041 35.3367964 16.875 37.375 C17.308125 38.055625 17.74125 38.73625 18.1875 39.4375 C17.36574769 42.57509973 16.48494125 44.14005875 14.1875 46.4375 C14.1875 47.4275 14.1875 48.4175 14.1875 49.4375 C17.98701706 47.94483258 20.0229862 45.88468865 22.1875 42.4375 C22.27949817 38.84957152 20.89912714 36.84978619 18.75 34.125 C17.904375 33.238125 17.05875 32.35125 16.1875 31.4375 C15.5275 31.4375 14.8675 31.4375 14.1875 31.4375 Z " fill="#000000" transform="translate(45.8125,3.5625)"/>
</svg>
